<svg xmlns="http://www.w3.org/2000/svg" xmlns:xlink="http://www.w3.org/1999/xlink" width="500" zoomAndPan="magnify" viewBox="0 0 375 374.999991" height="500" preserveAspectRatio="xMidYMid meet" version="1.0"><defs><clipPath id="d57ea81e82"><path d="M 0.441406 0.558594 L 331 0.558594 L 331 217.761719 L 0.441406 217.761719 Z M 0.441406 0.558594 " clip-rule="nonzero"/></clipPath><clipPath id="b4c7150511"><path d="M 0.441406 0.558594 L 363 0.558594 L 363 217.761719 L 0.441406 217.761719 Z M 0.441406 0.558594 " clip-rule="nonzero"/></clipPath><clipPath id="c7601935b3"><rect x="0" width="373" y="0" height="218"/></clipPath></defs><g transform="matrix(1, 0, 0, 1, 1, 76)"><g clip-path="url(#c7601935b3)"><path stroke-linecap="butt" transform="matrix(1.077318, 0, 0, 1.077318, 12.521401, 72.916649)" fill="none" stroke-linejoin="miter" d="M -0.00173583 10.498217 L 193.614286 10.498217 " stroke="#002f7b" stroke-width="21" stroke-opacity="1" stroke-miterlimit="4"/><g clip-path="url(#d57ea81e82)"><path stroke-linecap="butt" transform="matrix(0.85753, -0.652116, 0.652116, 0.85753, 81.075122, 176.167561)" fill="none" stroke-linejoin="miter" d="M 0.000390629 9.498431 L 148.527228 9.499812 " stroke="#002f7b" stroke-width="19" stroke-opacity="1" stroke-miterlimit="4"/></g><path stroke-linecap="butt" transform="matrix(0, -1.077318, 1.077318, 0, 70.780133, 192.578734)" fill="none" stroke-linejoin="miter" d="M 0.000564888 10.501654 L 167.053214 10.501654 " stroke="#002f7b" stroke-width="21" stroke-opacity="1" stroke-miterlimit="4"/><g clip-path="url(#b4c7150511)"><path stroke-linecap="butt" transform="matrix(0.853067, -0.657944, 0.657944, 0.853067, 109.90364, 192.470714)" fill="none" stroke-linejoin="miter" d="M -0.000674382 10.501557 L 137.62941 10.499432 " stroke="#002f7b" stroke-width="21" stroke-opacity="1" stroke-miterlimit="4"/></g><path stroke-linecap="butt" transform="matrix(-1.077318, 0.00000000188027, -0.00000000188027, -1.077318, 278.708999, 173.605492)" fill="none" stroke-linejoin="miter" d="M -0.00179946 10.500639 L 106.962369 10.500639 " stroke="#002f7b" stroke-width="21" stroke-opacity="1" stroke-miterlimit="4"/><path stroke-linecap="butt" transform="matrix(0, 1.077318, -1.077318, 0, 278.71275, 12.62143)" fill="none" stroke-linejoin="miter" d="M -0.000311766 10.498675 L 175.26501 10.498675 " stroke="#002f7b" stroke-width="21" stroke-opacity="1" stroke-miterlimit="4"/><path stroke-linecap="butt" transform="matrix(0, 1.077318, -1.077318, 0, 316.418382, 63.917764)" fill="none" stroke-linejoin="miter" d="M 0.000190415 10.501002 L 119.437468 10.501002 " stroke="#002f7b" stroke-width="21" stroke-opacity="1" stroke-miterlimit="4"/><path stroke-linecap="butt" transform="matrix(-1.077318, -0.00000000188027, 0.00000000188027, -1.077318, 360.462159, 201.429259)" fill="none" stroke-linejoin="miter" d="M 0.00113401 10.50022 L 61.891689 10.50022 " stroke="#002f7b" stroke-width="21" stroke-opacity="1" stroke-miterlimit="4"/><path stroke-linecap="butt" transform="matrix(0.00000000188027, 1.077318, -1.077318, 0.00000000188027, 360.47505, 113.344606)" fill="none" stroke-linejoin="miter" d="M -0.000794553 10.499214 L 73.554294 10.499214 " stroke="#002f7b" stroke-width="21" stroke-opacity="1" stroke-miterlimit="4"/></g></g></svg>